<svg xmlns="http://www.w3.org/2000/svg" width="329.26" height="129.15" viewBox="0 0 329.26 129.15">
  <defs>
    <style>
      .cls-1 {
        fill: #0047aa;
      }

      .cls-1, .cls-2 {
        fill-rule: evenodd;
      }

      .cls-2 {
        fill: #ffba3f;
      }
    </style>
  </defs>
  <g id="Layer_2" data-name="Layer 2">
    <g id="Layer_1-2" data-name="Layer 1">
      <g>
        <path class="cls-1" d="M0,117.75l17.85-15.59-.14-53.4A32.77,32.77,0,0,1,29.4,23.93C41,14.32,65,11.51,77.93,24.9c12.25,12.69,12.86,25.63,3.89,40.5-3.17,5.28-10.5,9.3-10.5,9.3s11.44,1.94,20.11-3.9c14.91-10,16.24-24.32,12.33-36.87a44.13,44.13,0,0,0-23-26.82C59.32-3.18,31.11-2.78,15.26,13.8,4.18,25.39.18,34.88.39,52.35.54,64.65,0,117.75,0,117.75Z"/>
        <path class="cls-2" d="M56.63,20.1s-11.26,5.7-14.4,15-3.15,25.65,6.15,33,16.8,10.35,23.4,10.65,18.45-1.8,24.6-6.3S110.48,57.75,110,45.9,106.73,26,99.23,16.65,77.18,0,77.18,0c23.7.38,49.89,19.29,50.25,43.8C127.8,69,111,87.1,90.4,93H310.93V94.2H85.42a51.83,51.83,0,0,1-31.19-3.75C48.68,87.9,40.43,83,40.43,83l-.3,30.15-17.7,16.05L22.28,48c.79-13.3,9.56-25.55,23.1-27.68A41.36,41.36,0,0,1,56.63,20.1Z"/>
        <polygon class="cls-1" points="117.91 8.25 135.46 22.35 135.6 0.75 138.76 0.75 177.01 39 215.26 0.6 218.41 0.75 218.41 83.7 198.01 83.55 198.01 47.25 177.01 67.95 117.91 8.25"/>
        <polygon class="cls-2" points="135.76 36.15 168.16 68.7 156.16 59.55 156.31 83.7 135.76 83.25 135.76 36.15"/>
        <polygon class="cls-1" points="228.01 0.6 248.41 0.6 248.56 37.05 269.41 16.2 329.26 76.5 310.81 62.1 310.96 83.55 307.36 83.55 269.41 45.15 230.86 83.4 228.01 83.55 228.01 0.6"/>
        <polygon class="cls-2" points="278.48 15.45 290.41 24.82 290.33 0.68 310.89 0.75 310.81 48.15 278.48 15.45"/>
      </g>
    </g>
  </g>
</svg>
